# xmcd
#
# Track frame offsets:
#	150
#	21274
#	34835
#	49685
#	64145
#	75847
#	87677
#	99276
#	114089
#	125335
#	135553
#	147053
#	160532
#	173640
#	182196
#	192309
#
# Disc length: 2725 seconds
#
# Revision: 1
# Processed by: cddbd v1.5.2PL0 Copyright (c) Steve Scherf et al.
# Submitted via: audiograbber 1.83.01
#
DISCID=c60aa310
DTITLE=Gene Pitney - Greatest Hits [CD1)
DYEAR=2006
DGENRE=Ballad
TTITLE0=Something´s  Gotten Hold Of My Heard
TTITLE1=Shady Lady
TTITLE2=Yours Until Tomorrow
TTITLE3=Somewhere In The Country
TTITLE4=Just One Smile
TTITLE5=Backstage
TTITLE6=Princess In Rags
TTITLE7=Looking Though The Eyes Of Love
TTITLE8=I Must Be Seeing Things
TTITLE9=I´m Gonna Be Strong
TTITLE10=It Hurt´s To Be In Love
TTITLE11=Twenty Four Hours From Tulsa
TTITLE12=Town Without Pity
TTITLE13=I Wanna Love My Life Away
TTITLE14=Hallo Mary Lou
TTITLE15=I Can´t Stop Loving You
EXTD=
EXTT0=
EXTT1=
EXTT2=
EXTT3=
EXTT4=
EXTT5=
EXTT6=
EXTT7=
EXTT8=
EXTT9=
EXTT10=
EXTT11=
EXTT12=
EXTT13=
EXTT14=
EXTT15=
PLAYORDER=
